<svg width="161" height="312" viewBox="0 0 161 312" fill="none" xmlns="http://www.w3.org/2000/svg">
<g opacity="0.3">
<path d="M4.17114 0C1.86899 0 0 1.869 0 4.17114C0 6.47329 1.86899 8.34229 4.17114 8.34229C6.47328 8.34229 8.34227 6.47329 8.34227 4.17114C8.34227 1.869 6.47328 0 4.17114 0Z" fill="white"/>
<path d="M4.17114 75.8666C1.86899 75.8666 0 77.7356 0 80.0377C0 82.3399 1.86899 84.2089 4.17114 84.2089C6.47328 84.2089 8.34227 82.3399 8.34227 80.0377C8.34227 77.7356 6.47328 75.8666 4.17114 75.8666Z" fill="white"/>
<path d="M4.17114 151.733C1.86899 151.733 0 153.602 0 155.904C0 158.206 1.86899 160.075 4.17114 160.075C6.47328 160.075 8.34227 158.206 8.34227 155.904C8.34227 153.602 6.47328 151.733 4.17114 151.733Z" fill="white"/>
<path d="M80.0377 0C77.7356 0 75.8666 1.869 75.8666 4.17114C75.8666 6.47329 77.7356 8.34229 80.0377 8.34229C82.3399 8.34229 84.2089 6.47329 84.2089 4.17114C84.2089 1.869 82.3399 0 80.0377 0Z" fill="white"/>
<path d="M80.0377 75.8666C77.7356 75.8666 75.8666 77.7356 75.8666 80.0377C75.8666 82.3399 77.7356 84.2089 80.0377 84.2089C82.3399 84.2089 84.2089 82.3399 84.2089 80.0377C84.2089 77.7356 82.3399 75.8666 80.0377 75.8666Z" fill="white"/>
<path d="M80.0377 151.733C77.7356 151.733 75.8666 153.602 75.8666 155.904C75.8666 158.206 77.7356 160.075 80.0377 160.075C82.3399 160.075 84.2089 158.206 84.2089 155.904C84.2089 153.602 82.3399 151.733 80.0377 151.733Z" fill="white"/>
<path d="M155.904 0C153.602 0 151.733 1.869 151.733 4.17114C151.733 6.47329 153.602 8.34229 155.904 8.34229C158.206 8.34229 160.075 6.47329 160.075 4.17114C160.075 1.869 158.206 0 155.904 0Z" fill="white"/>
<path d="M155.904 75.8666C153.602 75.8666 151.733 77.7356 151.733 80.0377C151.733 82.3399 153.602 84.2089 155.904 84.2089C158.206 84.2089 160.075 82.3399 160.075 80.0377C160.075 77.7356 158.206 75.8666 155.904 75.8666Z" fill="white"/>
<path d="M155.904 151.733C153.602 151.733 151.733 153.602 151.733 155.904C151.733 158.206 153.602 160.075 155.904 160.075C158.206 160.075 160.075 158.206 160.075 155.904C160.075 153.602 158.206 151.733 155.904 151.733Z" fill="white"/>
<path d="M4.17114 227.6C1.86899 227.6 0 229.469 0 231.771C0 234.073 1.86899 235.942 4.17114 235.942C6.47328 235.942 8.34227 234.073 8.34227 231.771C8.34227 229.469 6.47328 227.6 4.17114 227.6Z" fill="white"/>
<path d="M4.17114 303.466C1.86899 303.466 0 305.335 0 307.637C0 309.94 1.86899 311.809 4.17114 311.809C6.47328 311.809 8.34227 309.94 8.34227 307.637C8.34227 305.335 6.47328 303.466 4.17114 303.466Z" fill="white"/>
<path d="M80.0377 235.942L84.2089 231.771C84.2089 231.771 82.3414 227.6 80.0377 227.6C77.7341 227.6 75.8666 229.467 75.8666 231.771C75.8666 234.074 77.7341 235.942 80.0377 235.942Z" fill="white"/>
<path d="M80.0377 303.466C77.7356 303.466 75.8666 305.335 75.8666 307.637C75.8666 309.94 80.0377 311.809 80.0377 311.809L84.2089 307.637C84.2089 305.335 82.3399 303.466 80.0377 303.466Z" fill="white"/>
<path d="M155.904 235.942C158.208 235.942 160.075 234.074 160.075 231.771C160.075 229.467 158.208 227.6 155.904 227.6C153.601 227.6 151.733 229.467 151.733 231.771C151.733 234.074 153.601 235.942 155.904 235.942Z" fill="white"/>
<path d="M155.904 303.466C153.602 303.466 151.733 305.335 151.733 307.637C151.733 309.94 153.602 311.809 155.904 311.809C158.206 311.809 160.075 309.94 160.075 307.637C160.075 305.335 158.206 303.466 155.904 303.466Z" fill="white"/>
</g>
</svg>
