<svg viewBox="0 0 241 83" xmlns="http://www.w3.org/2000/svg" xmlns:xlink="http://www.w3.org/1999/xlink" width="241.000000" height="83.000000" fill="none" customFrame="#000000">
	<rect id="Color=Color Light" width="241.000000" height="82.999847" x="0.000000" y="0.000000" fill="rgb(255,255,255)" fill-opacity="0" />
	<g id="logo">
		<path id="Форма 6" d="M130.676 68.6826C127.946 66.333 125.31 63.8242 122.77 61.1572C120.293 58.4268 117.975 55.6318 115.816 52.7744C113.72 49.916 111.783 47.0264 110.005 44.1055C108.29 41.1211 106.829 38.1992 105.623 35.3418C103.464 37.6914 101.304 40.0732 99.145 42.4863C97.0493 44.8359 95.1758 47.2178 93.5247 49.6309C91.8734 51.9805 90.5398 54.3623 89.5237 56.7754C88.4441 59.125 87.9043 61.4746 87.9043 63.8242C87.9043 66.6191 88.3806 69.0322 89.3331 71.0645C90.2223 73.0332 91.429 74.6523 92.9531 75.9229C94.4773 77.1924 96.2238 78.1133 98.1924 78.6855C100.161 79.2568 102.193 79.542 104.289 79.542C108.481 79.542 112.926 78.5576 117.626 76.5898C122.325 74.6211 126.675 71.9854 130.676 68.6826ZM118.864 12.1934C118.864 9.9707 118.356 8.38281 117.34 7.42969C116.387 6.41406 115.339 5.90625 114.196 5.90625C113.244 5.90625 112.228 6.22363 111.148 6.8584C110.132 7.49316 109.179 8.41406 108.29 9.62109C107.464 10.7646 106.766 12.1611 106.194 13.8125C105.623 15.4639 105.337 17.2734 105.337 19.2422C105.337 22.8623 106.004 26.7041 107.337 30.7686C108.925 29.1182 110.417 27.498 111.815 25.9111C113.212 24.3232 114.418 22.7666 115.435 21.2432C116.514 19.6553 117.34 18.1309 117.911 16.6699C118.547 15.1465 118.864 13.6543 118.864 12.1934ZM155.539 81.7334C155.539 81.9238 155.412 82.1143 155.158 82.3047C154.904 82.4951 154.523 82.5908 154.015 82.5908C150.205 81.3838 146.458 79.7012 142.774 77.542C139.091 75.3193 135.503 72.7471 132.01 69.8262C129.597 71.668 127.088 73.3506 124.484 74.875C121.881 76.3984 119.213 77.7012 116.482 78.7803C113.815 79.8604 111.116 80.6855 108.385 81.2568C105.718 81.8291 103.146 82.1143 100.669 82.1143C98.256 82.1143 95.9697 81.7656 93.8104 81.0664C91.6512 80.4316 89.7777 79.4473 88.1901 78.1133C86.6024 76.7168 85.364 75.002 84.4749 72.9697C83.5222 70.9375 83.046 68.5557 83.046 65.8252C83.046 62.9033 83.7128 60.0459 85.0464 57.251C86.3801 54.3936 88.0947 51.5996 90.1906 48.8682C92.2863 46.1377 94.6042 43.4707 97.1445 40.8662C99.7483 38.2627 102.289 35.7227 104.765 33.2461C102.924 28.292 102.003 23.8154 102.003 19.8145C102.003 17.4639 102.416 15.3047 103.241 13.3359C104.13 11.3672 105.242 9.68457 106.575 8.28711C107.909 6.89062 109.37 5.81055 110.957 5.04883C112.609 4.22266 114.164 3.81055 115.625 3.81055C117.34 3.81055 118.896 4.38184 120.293 5.52539C121.69 6.60449 122.389 8.41406 122.389 10.9551C122.389 12.542 121.976 14.1934 121.15 15.9082C120.388 17.623 119.34 19.4014 118.007 21.2432C116.736 23.0215 115.212 24.8945 113.434 26.8633C111.719 28.7686 109.909 30.7373 108.004 32.7695C110.1 38.5488 113.212 44.4229 117.34 50.3926C121.531 56.2988 126.612 61.8242 132.582 66.9678C135.82 64.0469 138.424 60.8398 140.393 57.3467C142.362 53.8535 143.346 50.2021 143.346 46.3916C143.346 45.1221 143.156 43.8516 142.774 42.5811C142.457 41.248 141.79 39.8506 140.774 38.3896C140.774 38.2627 140.964 38.1357 141.345 38.0088C141.727 37.8184 142.076 37.7227 142.393 37.7227C143.282 37.7227 143.981 38.041 144.489 38.6758C145.061 39.2471 145.474 39.9453 145.728 40.7715C146.045 41.5967 146.236 42.4541 146.299 43.3438C146.426 44.1689 146.49 44.8359 146.49 45.3438C146.49 49.5352 145.315 53.5996 142.965 57.5371C140.679 61.4111 137.694 64.9678 134.01 68.2061C140.171 73.4775 147.125 77.7646 154.873 81.0664C155.317 81.3203 155.539 81.543 155.539 81.7334Z" fill="rgb(255,165.055,91.8)" fill-rule="nonzero" />
		<path id="Форма 3" d="M39.3521 25.9355C39.3521 26.0957 39.288 26.2236 39.16 26.3193C39.032 26.416 38.8719 26.5273 38.6801 26.6553C37.72 27.2314 36.936 28.0312 36.328 29.0557C35.72 30.0801 35.224 31.1992 34.84 32.416C34.488 33.6318 34.248 34.8799 34.12 36.1592C33.9919 37.4072 33.928 38.5596 33.928 39.6152C33.928 40.3516 33.96 41.2637 34.024 42.3516C34.12 43.4072 34.2161 44.5752 34.312 45.8555C34.4399 47.1357 34.536 48.4961 34.6 49.9355C34.696 51.3438 34.744 52.7832 34.744 54.2559C34.744 56.3359 34.616 58.3516 34.36 60.3037C34.136 62.2559 33.672 64 32.968 65.5352C32.296 67.0713 31.3521 68.3037 30.136 69.2314C28.92 70.1592 27.3359 70.624 25.384 70.624C24.488 70.624 23.64 70.4473 22.84 70.0957C22.072 69.7754 21.3521 69.3115 20.6801 68.7031C20.04 68.0957 19.448 67.3916 18.9041 66.5918C18.392 65.792 17.928 64.9111 17.512 63.9512Q16.8879 65.6313 16.024 67.0713Q15.2079 68.5112 14.2 69.5674C13.528 70.2715 12.792 70.8154 11.9919 71.1992C11.192 71.584 10.344 71.7754 9.448 71.7754C8.07202 71.7754 6.90405 71.4238 5.94397 70.7197C5.01599 70.0156 4.24805 69.0879 3.64001 67.9355C3.03198 66.8154 2.552 65.5352 2.19995 64.0957C1.88 62.624 1.64001 61.1357 1.47998 59.6318C1.31995 58.0957 1.20801 56.6074 1.14404 55.168C1.11206 53.6953 1.07996 52.3994 1.04797 51.2793C1.02666 50.6076 1.016 49.9482 1.016 49.3012C1.016 48.0069 1.05867 46.7622 1.14404 45.5674C1.30396 43.7432 1.47998 42.1113 1.672 40.6719C1.86401 39.1992 2.05603 37.9355 2.24805 36.8799C2.43994 35.8232 2.56799 35.04 2.63196 34.5273Q2.63765 34.4933 2.65009 34.4619Q2.74257 34.2288 3.20801 34.1436C3.59204 34.0801 3.92798 34.0479 4.21594 34.0479C4.43994 34.0479 4.63196 34.0801 4.79199 34.1436C4.95203 34.1758 5.03198 34.2715 5.03198 34.4316C5.03198 34.624 4.95203 34.96 4.79199 35.4395C4.63196 35.8877 4.39197 36.752 4.07202 38.0312C3.94397 38.6074 3.80005 39.4395 3.64001 40.5273C3.51196 41.584 3.38403 42.7832 3.25598 44.1279C3.16003 45.4717 3.07996 46.9111 3.01599 48.4473C2.95203 49.9512 2.92004 51.4238 2.92004 52.8633C2.92004 53.9834 2.96802 55.2158 3.06396 56.5596C3.16003 57.8721 3.31995 59.1836 3.54395 60.4961C3.76794 61.7754 4.07202 63.0234 4.45605 64.2393C4.83997 65.4561 5.30396 66.5273 5.84802 67.4561C6.42395 68.3838 7.09595 69.1191 7.86401 69.6641C8.63196 70.2393 9.52795 70.5273 10.552 70.5273C11.3199 70.5273 12.024 70.3359 12.6639 69.9512C13.304 69.5674 13.896 69.0234 14.4399 68.3193C14.984 67.6475 15.464 66.8477 15.88 65.9199C16.328 64.9912 16.728 63.9834 17.08 62.8955C16.344 60.8799 15.8 58.7354 15.448 56.4639C15.0959 54.1914 14.92 52.0957 14.92 50.1758C14.92 48.7676 14.968 47.376 15.064 46C15.192 44.624 15.368 43.3916 15.592 42.3037C15.816 41.2158 16.104 40.3359 16.4561 39.6641C16.808 38.9912 17.224 38.6553 17.704 38.6553C18.088 38.6553 18.424 38.8955 18.712 39.376C19.032 39.8555 19.288 40.5117 19.48 41.3438C19.704 42.1758 19.864 43.168 19.96 44.3193C20.088 45.4395 20.152 46.6553 20.152 47.9678C20.152 50.0801 20.0081 52.3037 19.72 54.6396Q19.288 58.0952 18.376 61.4072C18.792 62.5273 19.272 63.5674 19.816 64.5273C20.36 65.4561 20.968 66.2715 21.64 66.9756C22.344 67.6797 23.1121 68.2236 23.944 68.6074C24.808 69.0234 25.752 69.2314 26.776 69.2314C28.184 69.2314 29.3361 68.8799 30.2321 68.1758C31.1281 67.5039 31.832 66.5752 32.344 65.3916C32.856 64.1758 33.208 62.7832 33.4 61.2158C33.592 59.6152 33.688 57.9033 33.688 56.0801C33.688 54.4473 33.624 52.7676 33.496 51.04C33.4 49.3115 33.288 47.5996 33.16 45.9033C33.032 44.1758 32.9041 42.5117 32.776 40.9111C32.6801 39.2793 32.632 37.7754 32.632 36.3994C32.632 35.4072 32.776 34.2559 33.064 32.9434C33.384 31.6318 33.8 30.3994 34.312 29.248C34.856 28.0635 35.464 27.0713 36.136 26.2715C36.84 25.4395 37.576 25.0234 38.344 25.0234C38.568 25.0234 38.792 25.1357 39.016 25.3594C39.24 25.5518 39.3521 25.7432 39.3521 25.9355ZM165.807 52.8633C165.807 54.4316 165.359 56.1279 164.463 57.9512C163.599 59.7754 162.399 61.584 160.863 63.376C159.327 65.168 157.503 66.8955 155.391 68.5596C153.279 70.2236 151.007 71.6953 148.575 72.9756C146.143 74.2559 143.583 75.2637 140.895 76Q136.863 77.1514 132.831 77.1514C132.383 77.1514 131.887 77.1357 131.343 77.1035C130.831 77.0713 130.351 76.9912 129.903 76.8633C129.455 76.7676 129.071 76.5918 128.751 76.3359C128.431 76.1113 128.271 75.792 128.271 75.376C128.271 74.7998 128.559 74.2393 129.135 73.6953C129.711 73.1836 130.447 72.7031 131.343 72.2559C132.239 71.8076 133.215 71.4072 134.271 71.0557C135.327 70.7031 136.335 70.3994 137.295 70.1436C138.287 69.8877 139.151 69.6797 139.887 69.5195C140.623 69.3916 141.119 69.3271 141.375 69.3271C141.567 69.3271 141.711 69.376 141.807 69.4717C141.903 69.5674 141.951 69.6641 141.951 69.7598C141.951 69.9199 141.871 70 141.711 70L141.087 70C140.255 70 139.199 70.1592 137.919 70.4795C136.639 70.7998 135.391 71.1992 134.175 71.6797C132.959 72.1592 131.919 72.6875 131.055 73.2637C130.191 73.8721 129.759 74.4316 129.759 74.9434C129.759 75.2959 129.871 75.5674 130.095 75.7598C130.351 75.9834 130.655 76.1592 131.007 76.2881C131.359 76.416 131.727 76.4961 132.111 76.5273C132.495 76.5918 132.831 76.624 133.119 76.624C135.391 76.624 137.711 76.2393 140.079 75.4717C142.479 74.7031 144.799 73.6797 147.039 72.3994C149.311 71.1514 151.439 69.6953 153.423 68.0312C155.439 66.3994 157.199 64.7031 158.703 62.9434C160.207 61.1514 161.391 59.376 162.255 57.6152C163.119 55.8232 163.551 54.1592 163.551 52.624C163.551 50.7354 162.767 49.168 161.199 47.9199C159.663 46.6396 157.119 45.9033 153.567 45.7119C152.127 47.0557 150.543 48.1436 148.815 48.9756C147.119 49.8076 145.391 50.2236 143.631 50.2236C142.383 50.2236 141.759 49.9199 141.759 49.3115C141.759 48.9277 142.015 48.4961 142.527 48.0156C143.071 47.5039 143.807 47.0234 144.735 46.5752C145.695 46.1279 146.831 45.7598 148.143 45.4717C149.455 45.1514 150.895 44.9912 152.463 44.9912L153.039 44.9912C154.095 43.7432 154.943 42.3838 155.583 40.9111C156.223 39.4072 156.543 37.9355 156.543 36.4961C156.543 35.5352 156.367 34.624 156.015 33.7598C155.695 32.8633 155.151 32.0957 154.383 31.4561C153.647 30.8154 152.671 30.3037 151.455 29.9199C150.271 29.5352 148.831 29.3438 147.135 29.3438C145.983 29.3438 144.383 29.5039 142.335 29.8232C140.319 30.1436 138.127 30.6396 135.759 31.3115C133.423 31.9512 131.039 32.7676 128.607 33.7598C126.175 34.752 123.967 35.9033 121.983 37.2158C119.999 38.5273 118.383 40.0156 117.135 41.6797Q116.052 43.1237 115.595 44.7442Q115.263 45.9249 115.263 47.1992C115.263 47.4561 115.215 47.6797 115.119 47.8721C115.023 48.0312 114.927 48.1113 114.831 48.1113C114.703 48.1113 114.607 47.9834 114.543 47.7275Q114.399 47.2954 114.399 46.3359C114.687 44.2559 115.535 42.3672 116.943 40.6719C118.351 38.9756 120.095 37.4717 122.175 36.1592C124.223 34.8154 126.479 33.6641 128.943 32.7031C131.407 31.7432 133.839 30.96 136.239 30.3516Q139.887 29.3921 143.007 28.96Q146.175 28.4795 148.191 28.4795C150.143 28.4795 151.791 28.6719 153.135 29.0557Q155.199 29.583 156.495 30.5439C157.359 31.1514 157.983 31.8877 158.367 32.752C158.751 33.6152 158.943 34.5273 158.943 35.4873C158.943 37.0557 158.511 38.6875 157.647 40.3838C156.815 42.0479 155.679 43.5996 154.239 45.04C156.287 45.1357 158.047 45.4072 159.519 45.8555C160.991 46.2715 162.191 46.832 163.119 47.5352C164.047 48.208 164.719 49.0078 165.135 49.9355C165.583 50.832 165.807 51.8076 165.807 52.8633ZM90.356 59.7882C90.1831 60.101 89.984 60.4006 89.7588 60.6875C87.9988 63.1836 85.9988 65.1514 83.7588 66.5918C81.5188 68 79.2948 68.7031 77.0868 68.7031C75.7107 68.7031 74.3988 68.3838 73.1508 67.7432C71.9027 67.1357 70.7987 66.1436 69.8387 64.7676C69.7107 64.6074 69.6467 64.4639 69.6467 64.3359C69.6467 64.0479 69.8387 63.9033 70.2228 63.9033C70.2548 63.9033 70.3667 63.9355 70.5587 64C70.8147 64 71.1028 64.0957 71.4227 64.2881C71.7748 64.4473 72.2708 64.5273 72.9108 64.5273C73.9027 64.5273 74.8308 64.3516 75.6947 64C76.5587 63.6475 77.2948 63.1992 77.9027 62.6553C78.5427 62.0801 79.0387 61.4395 79.3907 60.7354C79.7428 60 79.9187 59.248 79.9187 58.4795Q79.9187 57.3998 79.487 56.5359Q79.3429 56.2476 79.1508 55.9834C78.6708 55.2793 77.8387 54.9277 76.6548 54.9277C75.4387 54.9277 74.3187 55.3594 73.2948 56.2236C72.2708 57.0557 71.3428 58.0801 70.5107 59.2959C69.7107 60.4795 69.0227 61.7432 68.4468 63.0879C67.8707 64.3994 67.4387 65.5518 67.1508 66.5439C66.9907 67.0879 66.8468 67.4238 66.7188 67.5518C66.5907 67.6797 66.4468 67.7432 66.2867 67.7432C65.964 67.7432 65.8028 67.4609 65.8028 66.8963C65.8028 66.845 65.8041 66.7913 65.8068 66.7354C65.8068 66.4473 65.8228 66.0957 65.8547 65.6797C65.8867 65.2637 65.9187 64.8154 65.9508 64.3359C65.9508 63.8555 65.9668 63.376 65.9988 62.8955Q66.0468 62.1279 66.0468 61.5039C66.0468 61.0823 66.044 60.643 66.0385 60.1859C65.9348 60.3532 65.8271 60.5204 65.7156 60.6875C64.0836 63.1191 62.4357 64.9277 60.7716 66.1113C59.1077 67.2959 57.5557 67.8877 56.1156 67.8877C54.2916 67.8877 52.8997 67.0234 51.9396 65.2959C50.8196 66.416 49.5557 67.2637 48.1476 67.8398C46.7716 68.416 45.4116 68.7031 44.0676 68.7031C43.2676 68.7031 42.4996 68.5918 41.7637 68.3672C41.0596 68.1436 40.4517 67.8076 39.9396 67.3594C39.3956 66.8799 38.9636 66.2881 38.6437 65.584C38.3236 64.8477 38.1636 64 38.1636 63.04C38.1636 61.8877 38.4357 60.7197 38.9796 59.5352C39.4916 58.3193 40.2117 57.2314 41.1396 56.2715C42.0996 55.2793 43.2196 54.4639 44.4996 53.8232C45.7797 53.1836 47.1716 52.8633 48.6757 52.8633C49.8916 52.8633 50.8356 53.04 51.5076 53.3916C52.1796 53.7119 52.5156 54.0156 52.5156 54.3037C52.5156 54.4316 52.4517 54.5273 52.3236 54.5918C52.1957 54.6553 52.0836 54.6875 51.9877 54.6875C51.9556 54.6553 51.9236 54.6396 51.8916 54.6396L51.8436 54.6396C51.4596 54.2881 51.0276 54.0156 50.5476 53.8232C50.0676 53.5996 49.3636 53.4873 48.4357 53.4873C47.1876 53.4873 46.0516 53.7598 45.0276 54.3037C44.0356 54.8154 43.1876 55.5039 42.4836 56.3672C41.7797 57.1992 41.2356 58.1279 40.8517 59.1514C40.4677 60.1758 40.2756 61.1836 40.2756 62.1758C40.2756 64.0957 40.7236 65.4873 41.6196 66.3516C42.5156 67.2158 43.6356 67.6475 44.9796 67.6475C46.0676 67.6475 47.2036 67.376 48.3876 66.832C49.5717 66.2881 50.6277 65.5195 51.5557 64.5273C51.0436 63.376 50.7876 61.8721 50.7876 60.0156C50.7876 58.7998 51.0116 57.7432 51.4596 56.8477C51.9076 55.9512 52.5476 55.5039 53.3796 55.5039C54.5316 55.5039 55.1077 56.1758 55.1077 57.5195C55.1077 58.8633 54.9156 60.0801 54.5316 61.168C54.1476 62.2236 53.6356 63.1836 52.9956 64.0479C53.8916 65.7119 55.1396 66.5439 56.7396 66.5439C57.9556 66.5439 59.2516 66.0312 60.6277 65.0078C62.0356 63.9834 63.4116 62.4961 64.7556 60.5439C65.0757 60.0635 65.3636 59.5674 65.6196 59.0557C65.7473 58.8004 65.875 58.5449 66.0027 58.2894C65.9887 57.7345 65.9714 57.1579 65.9508 56.5596C65.8867 54.6719 65.8068 52.7354 65.7107 50.752C65.6147 48.7354 65.5348 46.7354 65.4707 44.752Q65.3748 41.7754 65.3748 39.2793C65.3748 37.9678 65.4707 36.7031 65.6627 35.4873C65.8547 34.2393 66.1587 33.1514 66.5747 32.2236C66.9907 31.2637 67.5188 30.5117 68.1587 29.9678C68.7987 29.3916 69.5508 29.1035 70.4148 29.1035C71.3108 29.1035 72.0627 29.2637 72.6708 29.584C73.3108 29.8721 73.8228 30.3037 74.2068 30.8799C74.5907 31.4238 74.8628 32.0957 75.0227 32.8955C75.2147 33.6641 75.3108 34.5117 75.3108 35.4395C75.3108 37.04 75.0868 38.7998 74.6388 40.7197C74.1908 42.6074 73.5988 44.5117 72.8628 46.4316C72.1267 48.3516 71.2788 50.208 70.3187 52C69.3907 53.7598 68.4308 55.2959 67.4387 56.6074C67.5028 57.5674 67.5348 58.5596 67.5348 59.584Q67.5828 61.1191 67.6787 62.8477C68.4788 61.1191 69.3588 59.6318 70.3187 58.3838C70.7347 57.8398 71.1987 57.3115 71.7107 56.7998C72.2548 56.2559 72.8147 55.7754 73.3907 55.3594Q74.2411 54.7775 75.175 54.4045L75.1752 54.4044L75.191 54.3982Q75.2507 54.3744 75.3108 54.3516C76.0148 54.0957 76.7507 53.9678 77.5188 53.9678C78.7347 53.9678 79.7908 54.2715 80.6868 54.8799C81.5828 55.4873 82.0308 56.4639 82.0308 57.8076C82.0308 59.0879 81.7107 60.1758 81.0708 61.0713C80.4628 61.9678 79.6947 62.7197 78.7667 63.3271C77.8387 63.9033 76.8468 64.3359 75.7908 64.624C74.7347 64.9111 73.7748 65.0879 72.9108 65.1514C72.8468 65.1514 72.8147 65.168 72.8147 65.1992C72.8147 65.2637 72.8628 65.3594 72.9587 65.4873C73.5988 66.2236 74.3187 66.752 75.1188 67.0713C75.9187 67.3916 76.7507 67.5518 77.6147 67.5518C78.6708 67.5518 79.7428 67.3594 80.8308 66.9756C81.9187 66.5596 82.9587 66.0312 83.9508 65.3916Q85.4328 64.3878 86.6769 63.1456L86.6868 63.1357C87.5508 62.2715 88.2548 61.4072 88.7987 60.5439C89.1188 60.0635 89.4067 59.5674 89.6627 59.0557C89.9187 58.5439 90.1748 58.0312 90.4308 57.5195L90.4413 57.5223C90.5133 57.0416 90.6214 56.5608 90.7656 56.0801C91.0536 55.1191 91.4376 54.2559 91.9176 53.4873C92.4296 52.7197 93.0056 52.0957 93.6456 51.6152C94.3176 51.1357 95.0216 50.8955 95.7576 50.8955C96.9417 50.8955 97.8057 51.248 98.3496 51.9512C98.8937 52.624 99.1656 53.4873 99.1656 54.5439C99.1656 55.9834 98.7177 57.5518 97.8217 59.248C96.9576 60.9111 95.7096 62.4639 94.0776 63.9033C95.2936 65.2793 96.8616 65.9678 98.7816 65.9678C100.222 65.9678 101.726 65.5352 103.294 64.6719C104.862 63.7754 106.334 62.3994 107.71 60.5439C108.062 60.0957 108.35 59.6152 108.574 59.1035C108.83 58.5596 109.086 58.0312 109.342 57.5195L110.254 57.7598C110.03 58.2393 109.79 58.7354 109.534 59.248C109.31 59.7275 109.022 60.208 108.67 60.6875C107.102 62.9277 105.31 64.624 103.294 65.7754C101.31 66.8955 99.4056 67.4561 97.5817 67.4561C96.5576 67.4561 95.5977 67.2793 94.7017 66.9277C93.8376 66.5752 93.0856 66.0479 92.4457 65.3438C91.8057 64.6396 91.2936 63.7598 90.9097 62.7031C90.6013 61.8554 90.4167 60.8836 90.356 59.7882ZM220.481 59.7882C220.308 60.101 220.109 60.4006 219.884 60.6875C218.124 63.1836 216.124 65.1514 213.884 66.5918C211.644 68 209.42 68.7031 207.212 68.7031C205.836 68.7031 204.524 68.3838 203.276 67.7432C202.028 67.1357 200.924 66.1436 199.964 64.7676C199.836 64.6074 199.772 64.4639 199.772 64.3359C199.772 64.0479 199.964 63.9033 200.348 63.9033C200.38 63.9033 200.492 63.9355 200.684 64C200.94 64 201.228 64.0957 201.548 64.2881C201.9 64.4473 202.396 64.5273 203.036 64.5273C204.028 64.5273 204.956 64.3516 205.82 64C206.684 63.6475 207.42 63.1992 208.028 62.6553C208.668 62.0801 209.164 61.4395 209.516 60.7354C209.868 60 210.044 59.248 210.044 58.4795Q210.044 57.3998 209.612 56.5359Q209.468 56.2476 209.276 55.9834C208.796 55.2793 207.964 54.9277 206.78 54.9277C205.564 54.9277 204.444 55.3594 203.42 56.2236C202.396 57.0557 201.468 58.0801 200.636 59.2959C199.836 60.4795 199.148 61.7432 198.572 63.0879C197.996 64.3994 197.564 65.5518 197.276 66.5439C197.116 67.0879 196.972 67.4238 196.844 67.5518C196.716 67.6797 196.572 67.7432 196.412 67.7432C196.089 67.7432 195.928 67.4609 195.928 66.8963C195.928 66.845 195.929 66.7913 195.932 66.7354C195.932 66.4473 195.948 66.0957 195.98 65.6797C196.012 65.2637 196.044 64.8154 196.076 64.3359C196.076 63.8555 196.092 63.376 196.124 62.8955Q196.172 62.1279 196.172 61.5039C196.172 61.0823 196.169 60.643 196.164 60.1859C196.06 60.3532 195.952 60.5204 195.841 60.6875C194.209 63.1191 192.561 64.9277 190.897 66.1113C189.233 67.2959 187.681 67.8877 186.241 67.8877C184.417 67.8877 183.025 67.0234 182.065 65.2959C180.945 66.416 179.681 67.2637 178.273 67.8398C176.897 68.416 175.537 68.7031 174.193 68.7031C173.393 68.7031 172.625 68.5918 171.889 68.3672C171.185 68.1436 170.577 67.8076 170.065 67.3594C169.521 66.8799 169.089 66.2881 168.769 65.584C168.449 64.8477 168.289 64 168.289 63.04C168.289 61.8877 168.561 60.7197 169.105 59.5352C169.617 58.3193 170.337 57.2314 171.265 56.2715C172.225 55.2793 173.345 54.4639 174.625 53.8232C175.905 53.1836 177.297 52.8633 178.801 52.8633C180.017 52.8633 180.961 53.04 181.633 53.3916C182.305 53.7119 182.641 54.0156 182.641 54.3037C182.641 54.4316 182.577 54.5273 182.449 54.5918C182.321 54.6553 182.209 54.6875 182.113 54.6875C182.081 54.6553 182.049 54.6396 182.017 54.6396L181.969 54.6396C181.585 54.2881 181.153 54.0156 180.673 53.8232C180.193 53.5996 179.489 53.4873 178.561 53.4873C177.313 53.4873 176.177 53.7598 175.153 54.3037C174.161 54.8154 173.313 55.5039 172.609 56.3672C171.905 57.1992 171.361 58.1279 170.977 59.1514C170.593 60.1758 170.401 61.1836 170.401 62.1758C170.401 64.0957 170.849 65.4873 171.745 66.3516C172.641 67.2158 173.761 67.6475 175.105 67.6475C176.193 67.6475 177.329 67.376 178.513 66.832C179.697 66.2881 180.753 65.5195 181.681 64.5273C181.169 63.376 180.913 61.8721 180.913 60.0156C180.913 58.7998 181.137 57.7432 181.585 56.8477C182.033 55.9512 182.673 55.5039 183.505 55.5039C184.657 55.5039 185.233 56.1758 185.233 57.5195C185.233 58.8633 185.041 60.0801 184.657 61.168C184.273 62.2236 183.761 63.1836 183.121 64.0479C184.017 65.7119 185.265 66.5439 186.865 66.5439C188.081 66.5439 189.377 66.0312 190.753 65.0078C192.161 63.9834 193.537 62.4961 194.881 60.5439C195.201 60.0635 195.489 59.5674 195.745 59.0557C195.872 58.8004 196 58.5449 196.128 58.2894C196.114 57.7345 196.096 57.1579 196.076 56.5596C196.012 54.6719 195.932 52.7354 195.836 50.752C195.74 48.7354 195.66 46.7354 195.596 44.752Q195.5 41.7754 195.5 39.2793C195.5 37.9678 195.596 36.7031 195.788 35.4873C195.98 34.2393 196.284 33.1514 196.7 32.2236C197.116 31.2637 197.644 30.5117 198.284 29.9678C198.924 29.3916 199.676 29.1035 200.54 29.1035C201.436 29.1035 202.188 29.2637 202.796 29.584C203.436 29.8721 203.948 30.3037 204.332 30.8799C204.716 31.4238 204.988 32.0957 205.148 32.8955C205.34 33.6641 205.436 34.5117 205.436 35.4395C205.436 37.04 205.212 38.7998 204.764 40.7197C204.316 42.6074 203.724 44.5117 202.988 46.4316C202.252 48.3516 201.404 50.208 200.444 52C199.516 53.7598 198.556 55.2959 197.564 56.6074C197.628 57.5674 197.66 58.5596 197.66 59.584Q197.708 61.1191 197.804 62.8477C198.604 61.1191 199.484 59.6318 200.444 58.3838C200.86 57.8398 201.324 57.3115 201.836 56.7998C202.38 56.2559 202.94 55.7754 203.516 55.3594Q204.366 54.7775 205.3 54.4044Q205.333 54.3913 205.366 54.3784Q205.401 54.3648 205.436 54.3516C206.14 54.0957 206.876 53.9678 207.644 53.9678C208.86 53.9678 209.916 54.2715 210.812 54.8799C211.708 55.4873 212.156 56.4639 212.156 57.8076C212.156 59.0879 211.836 60.1758 211.196 61.0713C210.588 61.9678 209.82 62.7197 208.892 63.3271C207.964 63.9033 206.972 64.3359 205.916 64.624C204.86 64.9111 203.9 65.0879 203.036 65.1514C202.972 65.1514 202.94 65.168 202.94 65.1992C202.94 65.2637 202.988 65.3594 203.084 65.4873C203.724 66.2236 204.444 66.752 205.244 67.0713C206.044 67.3916 206.876 67.5518 207.74 67.5518C208.796 67.5518 209.868 67.3594 210.956 66.9756C212.044 66.5596 213.084 66.0312 214.076 65.3916Q215.558 64.3879 216.802 63.1459L216.802 63.1456L216.812 63.1357C217.676 62.2715 218.38 61.4072 218.924 60.5439C219.244 60.0635 219.532 59.5674 219.788 59.0557C220.044 58.5439 220.3 58.0312 220.556 57.5195L220.566 57.5223C220.638 57.0416 220.746 56.5608 220.891 56.0801C221.179 55.1191 221.563 54.2559 222.043 53.4873C222.555 52.7197 223.131 52.0957 223.771 51.6152C224.443 51.1357 225.147 50.8955 225.883 50.8955C227.067 50.8955 227.931 51.248 228.475 51.9512C229.019 52.624 229.291 53.4873 229.291 54.5439C229.291 55.9834 228.843 57.5518 227.947 59.248C227.083 60.9111 225.835 62.4639 224.203 63.9033C225.419 65.2793 226.987 65.9678 228.907 65.9678C230.347 65.9678 231.851 65.5352 233.419 64.6719C234.987 63.7754 236.459 62.3994 237.835 60.5439C238.187 60.0957 238.475 59.6152 238.699 59.1035C238.955 58.5596 239.211 58.0312 239.467 57.5195L240.379 57.7598C240.155 58.2393 239.915 58.7354 239.659 59.248C239.435 59.7275 239.147 60.208 238.795 60.6875C237.227 62.9277 235.435 64.624 233.419 65.7754C231.435 66.8955 229.531 67.4561 227.707 67.4561C226.683 67.4561 225.723 67.2793 224.827 66.9277C223.963 66.5752 223.211 66.0479 222.571 65.3438C221.931 64.6396 221.419 63.7598 221.035 62.7031C220.726 61.8554 220.542 60.8836 220.481 59.7882ZM73.9668 36.3037C73.9668 34.4795 73.6627 33.0234 73.0548 31.9355C72.4788 30.8154 71.5028 30.2559 70.1267 30.2559C69.6467 30.2559 69.1987 30.416 68.7827 30.7354C68.3988 31.0234 68.0627 31.4238 67.7748 31.9355C67.4867 32.4473 67.2627 33.04 67.1028 33.7119C66.9427 34.3838 66.8628 35.1035 66.8628 35.8721Q66.8628 39.0391 66.9108 41.6318Q66.9587 44.2231 67.0067 46.5273C67.0708 48.0635 67.1348 49.5518 67.1987 50.9912C67.2627 52.4316 67.3268 53.9033 67.3907 55.4072Q68.7827 53.5352 69.9828 51.1357Q71.1827 48.688 72.0468 46.1436C72.6548 44.416 73.1188 42.7031 73.4387 41.0078C73.7908 39.3115 73.9668 37.7432 73.9668 36.3037ZM204.092 36.3037C204.092 34.4795 203.788 33.0234 203.18 31.9355C202.604 30.8154 201.628 30.2559 200.252 30.2559C199.772 30.2559 199.324 30.416 198.908 30.7354C198.524 31.0234 198.188 31.4238 197.9 31.9355C197.612 32.4473 197.388 33.04 197.228 33.7119C197.068 34.3838 196.988 35.1035 196.988 35.8721Q196.988 39.0391 197.036 41.6318Q197.084 44.2231 197.132 46.5273C197.196 48.0635 197.26 49.5518 197.324 50.9912C197.388 52.4316 197.452 53.9033 197.516 55.4072Q198.908 53.5352 200.108 51.1357Q201.308 48.688 202.172 46.1436C202.78 44.416 203.244 42.7031 203.564 41.0078C203.916 39.3115 204.092 37.7432 204.092 36.3037ZM140.367 65.4873C140.367 65.9355 140.335 66.2559 140.271 66.4473C140.207 66.6396 140.031 66.7354 139.743 66.7354C139.103 66.7998 138.783 66.1592 138.783 64.8154C138.751 60.3994 138.703 56.3672 138.639 52.7197C138.607 49.0713 138.559 45.9199 138.495 43.2637Q138.447 39.231 138.399 36.8799C138.367 35.3115 138.351 34.416 138.351 34.1914C138.351 33.9355 138.431 33.7598 138.591 33.6641Q138.831 33.519 139.167 33.4238Q139.466 33.4238 139.649 33.5698Q139.701 33.6111 139.743 33.6641C139.903 33.8232 139.983 34.0156 139.983 34.2393C139.983 36.7998 139.999 39.4395 140.031 42.1592L140.127 50.2236C140.191 52.9111 140.239 55.5518 140.271 58.1436C140.335 60.7354 140.367 63.1836 140.367 65.4873ZM19.24 47.7275C19.24 45.7432 19.1121 44.0957 18.856 42.7832C18.632 41.4717 18.312 40.8154 17.896 40.8154C17.64 40.8154 17.4 41.0078 17.176 41.3916C16.952 41.7432 16.76 42.2559 16.6 42.9277C16.472 43.5674 16.36 44.3359 16.264 45.2314C16.2 46.0957 16.168 47.04 16.168 48.0635C16.168 49.8877 16.296 51.8555 16.552 53.9678C16.808 56.0479 17.256 58.0635 17.896 60.0156C18.344 57.9678 18.6801 55.8721 18.9041 53.7275C19.1281 51.5518 19.24 49.5518 19.24 47.7275ZM151.839 45.6641Q150.063 45.6641 148.431 46.0479C147.375 46.3037 146.431 46.6074 145.599 46.96C144.799 47.3115 144.143 47.6797 143.631 48.0635Q142.911 48.6392 142.911 49.0713C142.911 49.4561 143.359 49.6475 144.255 49.6475C145.791 49.6475 147.247 49.2793 148.623 48.5439C150.031 47.8076 151.295 46.8477 152.415 45.6641L151.839 45.6641ZM98.1096 54.7832C98.1096 53.9199 97.8856 53.2158 97.4376 52.6719Q97.3326 52.5264 97.2044 52.4054Q96.5712 51.8076 95.3737 51.8076C94.8616 51.8076 94.3976 51.9678 93.9816 52.2881C93.5657 52.6074 93.2136 53.04 92.9257 53.584C92.6376 54.0957 92.4136 54.7031 92.2537 55.4072C92.0936 56.1113 92.0137 56.8477 92.0137 57.6152C92.0137 58.832 92.1416 59.9199 92.3976 60.8799C92.6857 61.8076 93.0856 62.624 93.5977 63.3271C94.2697 62.7832 94.8777 62.1592 95.4216 61.4561C95.9656 60.752 96.4296 60.0156 96.8136 59.248C97.2296 58.4795 97.5497 57.7119 97.7737 56.9434C97.9977 56.1758 98.1096 55.4561 98.1096 54.7832ZM228.235 54.7832C228.235 53.9199 228.011 53.2158 227.563 52.6719Q227.458 52.5264 227.329 52.4054Q226.696 51.8076 225.499 51.8076C224.987 51.8076 224.523 51.9678 224.107 52.2881C223.691 52.6074 223.339 53.04 223.051 53.584C222.763 54.0957 222.539 54.7031 222.379 55.4072C222.219 56.1113 222.139 56.8477 222.139 57.6152C222.139 58.832 222.267 59.9199 222.523 60.8799C222.811 61.8076 223.211 62.624 223.723 63.3271C224.395 62.7832 225.003 62.1592 225.547 61.4561C226.091 60.752 226.555 60.0156 226.939 59.248C227.355 58.4795 227.675 57.7119 227.899 56.9434C228.123 56.1758 228.235 55.4561 228.235 54.7832ZM54.3396 57.8076C54.3396 57.3271 54.2596 56.9434 54.0996 56.6553C53.9396 56.3359 53.6836 56.1758 53.3317 56.1758C52.7876 56.1758 52.3716 56.4473 52.0836 56.9912C51.8244 57.4527 51.6948 58.0296 51.6948 58.7243Q51.6948 58.8399 51.6996 58.96C51.7957 60.6553 52.0996 62.0801 52.6116 63.2314Q53.4277 62.1284 53.8596 60.7354C54.1797 59.8076 54.3396 58.832 54.3396 57.8076ZM184.465 57.8076C184.465 57.3271 184.385 56.9434 184.225 56.6553C184.065 56.3359 183.809 56.1758 183.457 56.1758C182.913 56.1758 182.497 56.4473 182.209 56.9912C181.949 57.4527 181.82 58.0296 181.82 58.7243C181.82 58.8014 181.821 58.8799 181.825 58.96C181.921 60.6553 182.225 62.0801 182.737 63.2314Q183.553 62.1284 183.985 60.7354C184.305 59.8076 184.465 58.832 184.465 57.8076Z" fill="rgb(255,248.793,243.738)" fill-rule="evenodd" />
	</g>
</svg>
